<svg width="1365" height="1024" xmlns="http://www.w3.org/2000/svg" overflow="hidden"><defs><filter id="d" filterUnits="userSpaceOnUse"><feComponentTransfer color-interpolation-filters="sRGB"><feFuncR type="discrete" tableValues="0 0"/><feFuncG type="discrete" tableValues="0 0"/><feFuncB type="discrete" tableValues="0 0"/><feFuncA type="linear" slope=".502"/></feComponentTransfer><feGaussianBlur stdDeviation="1.33301 1.33333"/></filter><filter id="h" filterUnits="userSpaceOnUse"><feComponentTransfer color-interpolation-filters="sRGB"><feFuncR type="discrete" tableValues="0 0"/><feFuncG type="discrete" tableValues="0 0"/><feFuncB type="discrete" tableValues="0 0"/><feFuncA type="linear" slope=".792"/></feComponentTransfer><feGaussianBlur stdDeviation="0.888672 0.888889"/></filter><filter id="l" filterUnits="userSpaceOnUse"><feComponentTransfer color-interpolation-filters="sRGB"><feFuncR type="discrete" tableValues="0 0"/><feFuncG type="discrete" tableValues="0 0"/><feFuncB type="discrete" tableValues="0 0"/><feFuncA type="linear" slope=".792"/></feComponentTransfer><feGaussianBlur stdDeviation="0.888672 0.888889"/></filter><filter id="o" filterUnits="userSpaceOnUse"><feComponentTransfer color-interpolation-filters="sRGB"><feFuncR type="discrete" tableValues="0 0"/><feFuncG type="discrete" tableValues="0 0"/><feFuncB type="discrete" tableValues="0 0"/><feFuncA type="linear" slope=".502"/></feComponentTransfer><feGaussianBlur stdDeviation="1.33301 1.33333"/></filter><filter id="s" filterUnits="userSpaceOnUse"><feComponentTransfer color-interpolation-filters="sRGB"><feFuncR type="discrete" tableValues="0 0"/><feFuncG type="discrete" tableValues="0 0"/><feFuncB type="discrete" tableValues="0 0"/><feFuncA type="linear" slope=".502"/></feComponentTransfer><feGaussianBlur stdDeviation="1.33301 1.33333"/></filter><filter id="w" filterUnits="userSpaceOnUse"><feComponentTransfer color-interpolation-filters="sRGB"><feFuncR type="discrete" tableValues="0 0"/><feFuncG type="discrete" tableValues="0 0"/><feFuncB type="discrete" tableValues="0 0"/><feFuncA type="linear" slope=".502"/></feComponentTransfer><feGaussianBlur stdDeviation="1.77734 1.77778"/></filter><clipPath id="a"><path d="M0 0h1365v1024H0z"/></clipPath><clipPath id="b"><path d="M247.766 347.366c-57.933.122-115.843 15.819-159.997 47.062-88.307 62.469-88.152 163.488.351 225.597 88.481 62.11 231.816 61.809 320.123-.677 88.307-62.469 88.153-163.488-.351-225.598-44.24-31.054-102.194-46.506-160.126-46.384zM0 0h1365v1024H0z" fill-rule="evenodd" clip-rule="evenodd"/></clipPath><clipPath id="c"><path d="M-1-1h473v339H-1z"/></clipPath><clipPath id="e"><path d="M0 0h470v337H0z"/></clipPath><clipPath id="f"><path d="M473.439 609.362c-57.93.116-115.835 15.808-159.988 47.049-88.308 62.466-88.153 163.464.35 225.586 88.504 62.123 231.816 61.838 320.123-.644 88.308-62.466 88.153-163.464-.35-225.586-44.252-31.062-102.206-46.521-160.135-46.405zM0 0h1365v1024H0z" fill-rule="evenodd" clip-rule="evenodd"/></clipPath><clipPath id="g"><path d="M1 1h468v334H1z"/></clipPath><clipPath id="i"><path d="M0 0h469v335H0z"/></clipPath><clipPath id="j"><path d="M892.324 604.07c-57.929.116-115.834 15.808-159.988 47.049-88.307 62.467-88.153 163.464.351 225.587 88.503 62.122 231.816 61.838 320.123-.645 88.31-62.466 88.15-163.464-.35-225.586-44.25-31.062-102.207-46.521-160.136-46.405zM0 0h1365v1024H0z" fill-rule="evenodd" clip-rule="evenodd"/></clipPath><clipPath id="k"><path d="M1 0h467v334H1z"/></clipPath><clipPath id="m"><path d="M0 0h469v335H0z"/></clipPath><clipPath id="n"><path d="M-1-1h473v339H-1z"/></clipPath><clipPath id="p"><path d="M0 0h470v337H0z"/></clipPath><clipPath id="q"><path d="M898.743 85.358c-57.93.116-115.834 15.808-159.988 47.049-88.307 62.466-88.153 163.463.351 225.586 88.503 62.123 231.816 61.838 320.124-.645 88.31-62.466 88.15-163.463-.35-225.586-44.25-31.061-102.208-46.52-160.137-46.404zM0 0h1365v1024H0z" fill-rule="evenodd" clip-rule="evenodd"/></clipPath><clipPath id="r"><path d="M-1-1h473v339H-1z"/></clipPath><clipPath id="t"><path d="M0 0h470v337H0z"/></clipPath><clipPath id="u"><path d="M473.438 85.358c-57.929.116-115.834 15.808-159.988 47.049-88.307 62.466-88.152 163.463.351 225.586 88.504 62.123 231.816 61.838 320.123-.645 88.308-62.466 88.153-163.463-.351-225.586-44.251-31.061-102.205-46.52-160.135-46.404zM0 0h1365v1024H0z" fill-rule="evenodd" clip-rule="evenodd"/></clipPath><clipPath id="v"><path d="M-2-2h477v345H-2z"/></clipPath><clipPath id="x"><path d="M0 0h474v341H0z"/></clipPath></defs><g clip-path="url(#a)"><path fill="#FFF" d="M0 0h1365v1024.25H0z"/><g clip-path="url(#b)"><g clip-path="url(#c)" filter="url(#d)" transform="translate(13 341)"><g clip-path="url(#e)"><path d="M395.243 281.015c-88.307 62.486-231.642 62.787-320.123.677-88.503-62.11-88.658-163.128-.35-225.598 88.306-62.485 231.642-62.786 320.122-.677 88.504 62.11 88.658 163.128.351 225.598z" stroke="#F38F18" stroke-width="8.002" fill="#924507" fill-rule="evenodd"/></g></g></g><path d="M408.243 619.348c-88.307 62.486-231.642 62.787-320.123.677-88.503-62.109-88.658-163.128-.35-225.598 88.306-62.485 231.642-62.786 320.122-.677 88.504 62.11 88.658 163.129.351 225.598z" stroke="#F38F18" stroke-width="8" fill="#924507" fill-rule="evenodd"/><text fill="#FFF" font-family="Calibri,Calibri_MSFontService,sans-serif" font-weight="700" font-size="37" transform="matrix(1 0 0 1.00024 115.297 451)">GREET VOTERS &amp;</text><text fill="#FFF" font-family="Calibri,Calibri_MSFontService,sans-serif" font-weight="700" font-size="37" transform="matrix(1 0 0 1.00024 82.885 496)">MONITOR DROP BOX</text><text fill="#FFF" font-family="Calibri,Calibri_MSFontService,sans-serif" font-style="italic" font-weight="400" font-size="33" transform="matrix(1 0 0 1.00024 113.459 548)">Greet voters, ask to</text><text fill="#FFF" font-family="Calibri,Calibri_MSFontService,sans-serif" font-style="italic" font-weight="400" font-size="33" transform="matrix(1 0 0 1.00024 152.529 588)">have ID ready</text><g clip-path="url(#f)"><g clip-path="url(#g)" filter="url(#h)" transform="translate(241 603)"><g clip-path="url(#i)"><path d="M394.973 280.06c-88.308 62.483-231.62 62.767-320.124.645-88.503-62.123-88.658-163.12-.35-225.587 88.307-62.482 231.619-62.767 320.123-.644 88.503 62.122 88.658 163.12.351 225.586z" stroke="#B36AE1" stroke-width="8.002" fill="#3B1F4D" fill-rule="evenodd"/></g></g></g><path d="M633.924 881.353c-88.307 62.482-231.619 62.767-320.123.644-88.503-62.122-88.658-163.12-.35-225.586 88.307-62.482 231.619-62.767 320.123-.644 88.503 62.122 88.658 163.12.35 225.586z" stroke="#B36AE1" stroke-width="8" fill="#3B1F4D" fill-rule="evenodd"/><text fill="#FFF" font-family="Calibri,Calibri_MSFontService,sans-serif" font-weight="700" font-size="37" transform="matrix(1 0 0 1.00024 396.808 708)">ASSIST AT</text><text fill="#FFF" font-family="Calibri,Calibri_MSFontService,sans-serif" font-weight="700" font-size="37" transform="matrix(1 0 0 1.00024 365.315 753)">EXPRESSVOTE</text><text fill="#FFF" font-family="Calibri,Calibri_MSFontService,sans-serif" font-style="italic" font-weight="400" font-size="33" transform="matrix(1 0 0 1.00024 340.404 811)">Provide instructions</text><text fill="#FFF" font-family="Calibri,Calibri_MSFontService,sans-serif" font-style="italic" font-weight="400" font-size="33" transform="matrix(1 0 0 1.00024 408.72 851)">for voters</text><g clip-path="url(#j)"><g clip-path="url(#k)" filter="url(#l)" transform="translate(660 598)"><g clip-path="url(#m)"><path d="M394.858 279.768c-88.307 62.483-231.619 62.767-320.123.645-88.503-62.123-88.658-163.12-.35-225.587C162.69-7.655 306.003-7.94 394.506 54.183c88.504 62.123 88.658 163.12.351 225.586z" stroke="#FA694E" stroke-width="8.002" fill="#641303" fill-rule="evenodd"/></g></g></g><path d="M1052.81 876.061c-88.307 62.483-231.62 62.767-320.123.645-88.504-62.123-88.658-163.12-.351-225.587 88.307-62.482 231.62-62.767 320.124-.644 88.5 62.122 88.66 163.12.35 225.586z" stroke="#FA694E" stroke-width="8" fill="#641303" fill-rule="evenodd"/><text fill="#FFF" font-family="Calibri,Calibri_MSFontService,sans-serif" font-weight="700" font-size="37" transform="matrix(1 0 0 1.00024 758.54 719)">ASSIST CURBSIDE</text><text fill="#FFF" font-family="Calibri,Calibri_MSFontService,sans-serif" font-weight="700" font-size="37" transform="matrix(1 0 0 1.00024 831.356 764)">VOTERS</text><text fill="#FFF" font-family="Calibri,Calibri_MSFontService,sans-serif" font-style="italic" font-weight="400" font-size="33" transform="matrix(1 0 0 1.00024 721.219 813)">Use a Poll Pad to check in</text><text fill="#FFF" font-family="Calibri,Calibri_MSFontService,sans-serif" font-style="italic" font-weight="400" font-size="33" transform="matrix(1 0 0 1.00024 773.373 853)">voters at the curb</text><g clip-path="url(#n)" filter="url(#o)" transform="translate(882 341)"><g clip-path="url(#p)"><path d="M395.231 281.017c-88.307 62.483-231.62 62.768-320.123.645-88.504-62.123-88.658-163.12-.35-225.586C163.063-6.407 306.376-6.692 394.88 55.43c88.503 62.123 88.658 163.12.351 225.586z" stroke="#F5D328" stroke-width="8.002" fill="#A37512" fill-rule="evenodd"/></g></g><path d="M1277.23 619.351c-88.31 62.482-231.62 62.767-320.122.644-88.504-62.122-88.658-163.12-.351-225.586 88.303-62.483 231.623-62.767 320.123-.645 88.5 62.123 88.66 163.12.35 225.587z" stroke="#F5D328" stroke-width="8" fill="#A37512" fill-rule="evenodd"/><text fill="#FFF" font-family="Calibri,Calibri_MSFontService,sans-serif" font-weight="700" font-size="37" transform="matrix(1 0 0 1.00024 972.141 445)">MONITOR</text><text fill="#FFF" font-family="Calibri,Calibri_MSFontService,sans-serif" font-weight="700" font-size="37" transform="matrix(1 0 0 1.00024 1137.77 445)">VOTING</text><text fill="#FFF" font-family="Calibri,Calibri_MSFontService,sans-serif" font-weight="700" font-size="37" transform="matrix(1 0 0 1.00024 945.314 490)">BOOTHS &amp;</text><text fill="#FFF" font-family="Calibri,Calibri_MSFontService,sans-serif" font-weight="700" font-size="37" transform="matrix(1 0 0 1.00024 1119.61 490)">MACHINE</text><text fill="#FFF" font-family="Calibri,Calibri_MSFontService,sans-serif" font-weight="700" font-size="37" transform="matrix(1 0 0 1.00024 1271.07 490)">S</text><text fill="#FFF" font-family="Calibri,Calibri_MSFontService,sans-serif" font-style="italic" font-weight="400" font-size="33" transform="matrix(1 0 0 1.00024 1023.02 543)">Maintain line,</text><text fill="#FFF" font-family="Calibri,Calibri_MSFontService,sans-serif" font-style="italic" font-weight="400" font-size="33" transform="matrix(1 0 0 1.00024 1000.86 583)">provide guidance</text><g clip-path="url(#q)"><g clip-path="url(#r)" filter="url(#s)" transform="translate(664 79)"><g clip-path="url(#t)"><path d="M395.229 281.015c-88.307 62.483-231.62 62.767-320.123.645-88.504-62.123-88.658-163.12-.351-225.587 88.307-62.482 231.619-62.767 320.123-.644 88.504 62.122 88.658 163.12.351 225.586z" stroke="#51A8F9" stroke-width="8.002" fill="#002452" fill-rule="evenodd"/></g></g></g><path d="M1059.23 357.348c-88.308 62.483-231.621 62.768-320.124.645-88.504-62.123-88.658-163.12-.351-225.586 88.307-62.483 231.62-62.767 320.125-.645 88.5 62.123 88.66 163.12.35 225.586z" stroke="#51A8F9" stroke-width="8" fill="#002452" fill-rule="evenodd"/><text fill="#FFF" font-family="Calibri,Calibri_MSFontService,sans-serif" font-weight="700" font-size="37" transform="matrix(1 0 0 1.00024 782.528 223)">ISSUE BALLOTS</text><text fill="#FFF" font-family="Calibri,Calibri_MSFontService,sans-serif" font-style="italic" font-weight="400" font-size="33" transform="matrix(1 0 0 1.00024 805.431 275)">Issue ballots,</text><text fill="#FFF" font-family="Calibri,Calibri_MSFontService,sans-serif" font-style="italic" font-weight="400" font-size="33" transform="matrix(1 0 0 1.00024 782.183 315)">give instructions</text><g clip-path="url(#u)"><g clip-path="url(#v)" filter="url(#w)" transform="translate(238 74)"><g clip-path="url(#x)"><path d="M397.257 283.348c-88.307 62.483-231.619 62.768-320.123.645-88.503-62.123-88.658-163.12-.35-225.586C165.09-4.076 308.402-4.36 396.906 57.762c88.503 62.123 88.658 163.12.35 225.586z" stroke="#70BF41" stroke-width="8.002" fill="#054109" fill-rule="evenodd"/></g></g></g><path d="M633.924 357.348c-88.307 62.483-231.619 62.768-320.123.645-88.503-62.123-88.658-163.12-.351-225.586 88.308-62.483 231.62-62.767 320.123-.645 88.504 62.123 88.659 163.12.351 225.586z" stroke="#70BF41" stroke-width="8" fill="#054109" fill-rule="evenodd"/><text fill="#FFF" font-family="Calibri,Calibri_MSFontService,sans-serif" font-weight="700" font-size="37" transform="matrix(1 0 0 1.00024 335.708 224)">CHECK IN</text><text fill="#FFF" font-family="Calibri,Calibri_MSFontService,sans-serif" font-weight="700" font-size="37" transform="matrix(1 0 0 1.00024 489.171 224)">VOTERS</text><text fill="#FFF" font-family="Calibri,Calibri_MSFontService,sans-serif" font-style="italic" font-weight="400" font-size="33" transform="matrix(1 0 0 1.00024 287.701 275)">Check in voters on Poll Pads</text></g></svg>